<svg id="Layer_1" data-name="Layer 1" xmlns="http://www.w3.org/2000/svg" viewBox="0 0 198 55"><defs><style>.cls-1{fill:#894b9d;}.cls-2{fill:#2c3e50;}</style></defs><title>Artboard 33</title><g id="refresh"><path class="cls-1" d="M20.4,32.78l-4.83.08A20,20,0,0,1,45.88,11.16l.1.07,2.47-3.41c.27-.37.6-.32.74.12l3.21,10.36a.59.59,0,0,1-.59.81L41,19.29c-.46,0-.61-.29-.35-.66L43,15.29A15,15,0,0,0,20.73,32.73Zm33.94-9.71-5.17.09A15,15,0,0,1,26.85,40.53l2.42-3.34c.27-.37.11-.67-.35-.66l-10.85.19a.59.59,0,0,0-.59.81L20.7,47.89c.14.44.47.49.74.12l2.47-3.42.1.07A20,20,0,0,0,54.35,23.07Z"/></g><path class="cls-1" d="M47.65,14.83v1A11.74,11.74,0,0,0,35.93,27.56h-1A12.75,12.75,0,0,1,47.65,14.83Z"/><path class="cls-1" d="M35,26.73h1c0,.85,5.69,2.52,16.11,2.52v1C46.16,30.26,35,29.52,35,26.73Z"/><path class="cls-2" d="M34.92,27.56h1A20.29,20.29,0,0,0,56.19,47.83v1A21.3,21.3,0,0,1,34.92,27.56Z"/><path class="cls-1" d="M34.92,27.56h1A12.37,12.37,0,0,1,23.57,39.92v-1A11.36,11.36,0,0,0,34.92,27.56Z"/><path class="cls-1" d="M6.74,22c14.51,0,29.19,1.91,29.19,5.55h-1C34.92,25.67,24.2,23,6.74,23Z"/><path class="cls-2" d="M15.26,5.09A19.78,19.78,0,0,1,35,24.86H34A18.77,18.77,0,0,0,15.26,6.11Z"/><path class="cls-2" d="M35.36,23.74a3.88,3.88,0,1,1-3.88,3.88A3.89,3.89,0,0,1,35.36,23.74Zm0,6.4a2.51,2.51,0,1,0-2.51-2.51A2.52,2.52,0,0,0,35.36,30.14Z"/><path class="cls-1" d="M79.56,31.88V23.82H69.24v8.07H66V12.41h3.28v8.46H79.56V12.41h3.28V31.88Z"/><path class="cls-1" d="M91.25,15.36v5.26h9.52v2.95H91.25v5.37h11v2.95H88V12.41h13.91v2.95Z"/><path class="cls-1" d="M114,12.41c4.9,0,7.71,2.42,7.71,6.65,0,4.4-2.81,7-7.71,7H109.5v5.87h-3.28V12.41ZM109.5,23.06h4.34c3,0,4.7-1.28,4.7-3.92s-1.7-3.78-4.7-3.78H109.5Z"/><path class="cls-2" d="M132.92,12.41c5.84,0,10.07,4.09,10.07,9.74s-4.26,9.74-10.16,9.74h-7.9V12.41Zm-4.7,16.53H133a6.53,6.53,0,0,0,6.68-6.76,6.64,6.64,0,0,0-6.82-6.82h-4.65Z"/><path class="cls-2" d="M155.18,30.08a6,6,0,0,1-4.9,1.95c-3.2,0-5.2-2-5.2-4.59s2-4.42,5.59-4.45h4.48v-.45c0-1.86-1.2-3-3.53-3a7.8,7.8,0,0,0-4.37,1.5l-1.31-2.23A10.84,10.84,0,0,1,152.32,17c3.81,0,6,1.95,6,5.2l0,9.71h-3.14Zm0-3.39V25.32h-4c-2.09,0-3.06.56-3.06,2s1.09,2.2,2.87,2.2C153.23,29.49,155,28.29,155.15,26.68Z"/><path class="cls-2" d="M171,30.94A7.11,7.11,0,0,1,167.34,32c-2.23,0-4.15-1.28-4.15-4.31V20h-2.09V17.64h2.09V13.58h3.17v4.06h4.37V20h-4.37v7.09c0,1.53.58,2,1.59,2a5.17,5.17,0,0,0,2.23-.64Z"/><path class="cls-2" d="M182.81,30.08a6,6,0,0,1-4.9,1.95c-3.2,0-5.2-2-5.2-4.59s2-4.42,5.59-4.45h4.48v-.45c0-1.86-1.2-3-3.53-3a7.8,7.8,0,0,0-4.37,1.5l-1.31-2.23A10.84,10.84,0,0,1,179.94,17c3.81,0,6,1.95,6,5.2l0,9.71h-3.14Zm0-3.39V25.32h-4c-2.09,0-3.06.56-3.06,2s1.09,2.2,2.87,2.2C180.86,29.49,182.61,28.29,182.78,26.68Z"/><path class="cls-1" d="M132.94,39.21,132,40.36a3.68,3.68,0,0,0-2.62-1.2,3.32,3.32,0,1,0,0,6.64A3.9,3.9,0,0,0,132,44.68l.94,1a5.35,5.35,0,0,1-3.65,1.55,4.77,4.77,0,1,1,.05-9.53A5.2,5.2,0,0,1,132.94,39.21Z"/><path class="cls-1" d="M141.07,43.63A3.74,3.74,0,1,1,137.35,40,3.51,3.51,0,0,1,141.07,43.63Zm-5.92,0a2.19,2.19,0,1,0,2.19-2.31A2.16,2.16,0,0,0,135.15,43.65Z"/><path class="cls-1" d="M149.54,42.76v4.45H148v-4a1.59,1.59,0,0,0-1.72-1.74,2,2,0,0,0-2,2v3.81h-1.55V40.05h1.55v1.37A2.7,2.7,0,0,1,146.88,40,2.5,2.5,0,0,1,149.54,42.76Z"/><path class="cls-1" d="M153,47.21l-2.77-7.16h1.61l2,5.64,2-5.64h1.55l-2.75,7.16Z"/><path class="cls-1" d="M164.5,44.23h-5.41A2.18,2.18,0,0,0,161.31,46a2.78,2.78,0,0,0,2-.83l.82.87a3.9,3.9,0,0,1-3,1.21,3.63,3.63,0,1,1,0-7.27C163.66,40,164.69,41.64,164.5,44.23Zm-1.35-1.13a1.84,1.84,0,0,0-2-1.86,2,2,0,0,0-2.1,1.86Z"/><path class="cls-1" d="M167.66,41.48A2.6,2.6,0,0,1,170.14,40v1.48a2.17,2.17,0,0,0-2.48,2v3.74h-1.55V40.05h1.55Z"/><path class="cls-1" d="M175.47,46.76a3.44,3.44,0,0,1-1.76.52,1.89,1.89,0,0,1-2-2.09V41.48h-1V40.32h1v-2h1.53v2h2.11v1.16h-2.11v3.43c0,.74.28,1,.77,1a2.5,2.5,0,0,0,1.08-.31Z"/><path class="cls-1" d="M183.12,44.23h-5.41A2.18,2.18,0,0,0,179.93,46a2.78,2.78,0,0,0,2-.83l.82.87a3.9,3.9,0,0,1-3,1.21,3.63,3.63,0,1,1,0-7.27C182.28,40,183.31,41.64,183.12,44.23Zm-1.35-1.13a1.84,1.84,0,0,0-2-1.86,2,2,0,0,0-2.1,1.86Z"/><path class="cls-1" d="M186.28,41.48A2.6,2.6,0,0,1,188.76,40v1.48a2.17,2.17,0,0,0-2.48,2v3.74h-1.55V40.05h1.55Z"/></svg>